<svg xmlns="http://www.w3.org/2000/svg" viewBox="0 0 64 64" role="img" aria-label="Bubli">
  <defs>
    <radialGradient id="bubble" cx="30%" cy="24%" r="72%">
      <stop offset="0" stop-color="#ffffff" stop-opacity="0.98" />
      <stop offset="0.44" stop-color="#D7EAF4" stop-opacity="0.82" />
      <stop offset="1" stop-color="#8ECDF6" stop-opacity="0.34" />
    </radialGradient>
  </defs>
  <rect width="64" height="64" rx="18" fill="#F7F9FA" />
  <circle cx="32" cy="32" r="23" fill="url(#bubble)" stroke="#ffffff" stroke-width="2" />
  <path d="M19 25h12c5 0 8 2.6 8 6.6 0 2.2-1 4-2.8 5 2.5 1 3.8 3.1 3.8 5.8 0 4.4-3.4 7.6-8.8 7.6H19V25Zm7 9h4.2c1.5 0 2.5-.8 2.5-2.1s-1-2-2.5-2H26V34Zm0 11.1h4.9c1.8 0 2.8-.9 2.8-2.4 0-1.4-1.1-2.3-2.8-2.3H26v4.7Z" fill="#6B8FA8" />
  <circle cx="45" cy="20" r="4.5" fill="#ffffff" fill-opacity="0.72" />
</svg>
